<svg width="20" height="21" viewBox="0 0 20 21" fill="none" xmlns="http://www.w3.org/2000/svg">
<path d="M13.75 4.25C13.75 2.17969 12.0703 0.5 10 0.5C7.89062 0.5 6.25 2.17969 6.25 4.25C6.25 6.35938 7.89062 8 10 8C12.0703 8 13.75 6.35938 13.75 4.25ZM9.10156 9.95312C6.79688 8.50781 3.04688 8.11719 1.13281 8.03906C0.507812 8 0 8.46875 0 9.09375V17.7656C0 18.3516 0.429688 18.8203 1.01562 18.8203C2.73438 18.9375 6.17188 19.25 8.55469 20.4609C8.90625 20.6562 9.375 20.3828 9.375 19.9922V10.3828C9.375 10.1875 9.25781 10.0312 9.10156 9.95312ZM18.8281 8.03906C16.9141 8.11719 13.1641 8.50781 10.8594 9.95312C10.7031 10.0312 10.625 10.2266 10.625 10.3828V19.9922C10.625 20.3828 11.0547 20.6562 11.4062 20.4609C13.7891 19.25 17.2266 18.9375 18.9453 18.8594C19.5312 18.8203 20 18.3516 20 17.7656V9.09375C20 8.46875 19.4531 8 18.8281 8.03906Z" fill="#1181C8"/>
</svg>
