<svg width="21" height="24" viewBox="0 0 21 24" fill="none" xmlns="http://www.w3.org/2000/svg">
<path d="M6.9375 13.5C7.21875 13.5 7.5 13.2656 7.5 12.9375V11.0625C7.5 10.7812 7.21875 10.5 6.9375 10.5H5.0625C4.73438 10.5 4.5 10.7812 4.5 11.0625V12.9375C4.5 13.2656 4.73438 13.5 5.0625 13.5H6.9375ZM12 12.9375V11.0625C12 10.7812 11.7188 10.5 11.4375 10.5H9.5625C9.23438 10.5 9 10.7812 9 11.0625V12.9375C9 13.2656 9.23438 13.5 9.5625 13.5H11.4375C11.7188 13.5 12 13.2656 12 12.9375ZM16.5 12.9375V11.0625C16.5 10.7812 16.2188 10.5 15.9375 10.5H14.0625C13.7344 10.5 13.5 10.7812 13.5 11.0625V12.9375C13.5 13.2656 13.7344 13.5 14.0625 13.5H15.9375C16.2188 13.5 16.5 13.2656 16.5 12.9375ZM12 17.4375V15.5625C12 15.2812 11.7188 15 11.4375 15H9.5625C9.23438 15 9 15.2812 9 15.5625V17.4375C9 17.7656 9.23438 18 9.5625 18H11.4375C11.7188 18 12 17.7656 12 17.4375ZM7.5 17.4375V15.5625C7.5 15.2812 7.21875 15 6.9375 15H5.0625C4.73438 15 4.5 15.2812 4.5 15.5625V17.4375C4.5 17.7656 4.73438 18 5.0625 18H6.9375C7.21875 18 7.5 17.7656 7.5 17.4375ZM16.5 17.4375V15.5625C16.5 15.2812 16.2188 15 15.9375 15H14.0625C13.7344 15 13.5 15.2812 13.5 15.5625V17.4375C13.5 17.7656 13.7344 18 14.0625 18H15.9375C16.2188 18 16.5 17.7656 16.5 17.4375ZM21 5.25C21 4.03125 19.9688 3 18.75 3H16.5V0.5625C16.5 0.28125 16.2188 0 15.9375 0H14.0625C13.7344 0 13.5 0.28125 13.5 0.5625V3H7.5V0.5625C7.5 0.28125 7.21875 0 6.9375 0H5.0625C4.73438 0 4.5 0.28125 4.5 0.5625V3H2.25C0.984375 3 0 4.03125 0 5.25V21.75C0 23.0156 0.984375 24 2.25 24H18.75C19.9688 24 21 23.0156 21 21.75V5.25ZM18.75 21.4688C18.75 21.6562 18.6094 21.75 18.4688 21.75H2.53125C2.34375 21.75 2.25 21.6562 2.25 21.4688V7.5H18.75V21.4688Z" fill="#1181C8"/>
</svg>
