<svg width="20" height="21" viewBox="0 0 20 21" fill="none" xmlns="http://www.w3.org/2000/svg">
<path d="M0 16.3594V18C0 19.4062 3.35938 20.5 7.5 20.5C11.6406 20.5 15 19.4062 15 18V16.3594C13.3594 17.4922 10.4297 18 7.5 18C4.53125 18 1.60156 17.4922 0 16.3594ZM12.5 5.5C16.6406 5.5 20 4.40625 20 3C20 1.63281 16.6406 0.5 12.5 0.5C8.35938 0.5 5 1.63281 5 3C5 4.40625 8.35938 5.5 12.5 5.5ZM0 12.2578V14.25C0 15.6562 3.35938 16.75 7.5 16.75C11.6406 16.75 15 15.6562 15 14.25V12.2578C13.3594 13.5859 10.4297 14.25 7.5 14.25C4.53125 14.25 1.60156 13.5859 0 12.2578ZM16.25 12.6875C18.4766 12.2578 20 11.4375 20 10.5V8.85938C19.0625 9.48438 17.7344 9.91406 16.25 10.1875V12.6875ZM7.5 6.75C3.35938 6.75 0 8.15625 0 9.875C0 11.6328 3.35938 13 7.5 13C11.6406 13 15 11.6328 15 9.875C15 8.15625 11.6406 6.75 7.5 6.75ZM16.0547 8.97656C18.3984 8.54688 20 7.72656 20 6.75V5.10938C18.5938 6.08594 16.2109 6.59375 13.7109 6.75C14.8438 7.29688 15.7031 8.03906 16.0547 8.97656Z" fill="#FFD700"/>
</svg>
