<svg width="25" height="19" viewBox="0 0 25 19" fill="none" xmlns="http://www.w3.org/2000/svg">
<path d="M24.3359 4.85156L13.2812 0.90625C12.7344 0.710938 12.1484 0.710938 11.6016 0.90625L0.625 4.85156C0.234375 5.00781 0 5.35938 0 5.75C0 6.17969 0.234375 6.53125 0.625 6.6875L2.96875 7.50781C2.5 8.13281 2.14844 8.83594 1.99219 9.61719C1.5625 9.8125 1.25 10.2422 1.25 10.75C1.25 11.1406 1.40625 11.4922 1.67969 11.7266L0.742188 17.5469C0.664062 17.9375 0.976562 18.25 1.32812 18.25H3.63281C3.98438 18.25 4.29688 17.9375 4.21875 17.5469L3.28125 11.7266C3.55469 11.4922 3.75 11.1406 3.75 10.75C3.75 10.3594 3.51562 10.0078 3.24219 9.8125C3.39844 9.10938 3.75 8.48438 4.21875 7.97656L11.6406 10.6328C12.1875 10.8281 12.7734 10.8281 13.3203 10.6328L24.3359 6.6875C24.7266 6.53125 25 6.17969 25 5.75C25 5.35938 24.7266 5.00781 24.3359 4.85156ZM13.7109 11.8047C13.3203 11.9609 12.8906 12 12.5 12C12.0703 12 11.6406 11.9609 11.25 11.8047L5.54688 9.77344L5 15.3594C5 16.9609 8.32031 18.25 12.5 18.25C16.6016 18.25 20 16.9609 20 15.3594L19.4141 9.77344L13.7109 11.8047Z" fill="#1181C8"/>
</svg>
