<svg width="19" height="17" viewBox="0 0 19 17" fill="none" xmlns="http://www.w3.org/2000/svg">
<path d="M12.5625 11.7812C12.5 11.8438 12.5 11.9062 12.5 11.9688V15.5H1.5V4.5H9.03125C9.09375 4.5 9.15625 4.5 9.21875 4.4375L10.2188 3.4375C10.375 3.28125 10.25 3 10.0312 3H1.5C0.65625 3 0 3.6875 0 4.5V15.5C0 16.3438 0.65625 17 1.5 17H12.5C13.3125 17 14 16.3438 14 15.5V10.9688C14 10.75 13.7188 10.625 13.5625 10.7812L12.5625 11.7812ZM17.4375 5.5C18.1562 4.78125 18.1562 3.625 17.4375 2.90625L16.0938 1.5625C15.375 0.84375 14.2188 0.84375 13.5 1.5625L5.3125 9.75L5 12.5938C4.90625 13.4062 5.59375 14.0938 6.40625 14L9.25 13.6875L17.4375 5.5ZM14.375 6.4375L8.5625 12.25L6.5 12.5L6.75 10.4375L12.5625 4.625L14.375 6.4375ZM16.375 3.96875C16.5312 4.09375 16.5312 4.28125 16.4062 4.4375L15.4375 5.40625L13.625 3.5625L14.5625 2.625C14.6875 2.46875 14.9062 2.46875 15.0312 2.625L16.375 3.96875Z" fill="#1181C8"/>
</svg>
