<svg width="18" height="16" viewBox="0 0 18 16" fill="none" xmlns="http://www.w3.org/2000/svg">
<path d="M6.5 0C5.5625 0 4.78125 0.65625 4.5625 1.53125C4.53125 1.53125 4.5 1.5 4.5 1.5C3.375 1.5 2.5 2.40625 2.5 3.5C2.5 3.65625 2.5 3.8125 2.53125 3.9375C1.625 4.3125 1 5.21875 1 6.25C1 6.65625 1.09375 7.03125 1.25 7.34375C0.5 7.78125 0 8.59375 0 9.5C0 10.5625 0.625 11.4375 1.53125 11.8125C1.5 11.9688 1.5 12.125 1.5 12.25C1.5 13.5 2.5 14.5 3.75 14.5C3.875 14.5 4 14.5 4.125 14.4688C4.40625 15.375 5.25 16 6.25 16C7.46875 16 8.5 15 8.5 13.75V2C8.5 0.90625 7.59375 0 6.5 0ZM18 9.5C18 8.59375 17.4688 7.78125 16.7188 7.34375C16.875 7.03125 17 6.65625 17 6.25C17 5.21875 16.3438 4.3125 15.4375 3.9375C15.4688 3.8125 15.5 3.65625 15.5 3.5C15.5 2.40625 14.5938 1.5 13.5 1.5C13.4688 1.5 13.4375 1.53125 13.4062 1.53125C13.1875 0.65625 12.4062 0 11.5 0C10.375 0 9.5 0.90625 9.5 2V13.75C9.5 15 10.5 16 11.75 16C12.7188 16 13.5625 15.375 13.875 14.4688C13.9688 14.5 14.0938 14.5 14.25 14.5C15.4688 14.5 16.5 13.5 16.5 12.25C16.5 12.125 16.4688 11.9688 16.4375 11.8125C17.3438 11.4375 18 10.5625 18 9.5Z" fill="#1181C8"/>
</svg>
