<svg width="20" height="20" viewBox="0 0 20 20" fill="none" xmlns="http://www.w3.org/2000/svg">
<path d="M6.875 2.1875C6.875 1.07031 7.77734 0.125 8.9375 0.125H10.3125C11.4297 0.125 12.375 1.07031 12.375 2.1875V17.3125C12.375 18.4727 11.4297 19.375 10.3125 19.375H8.9375C7.77734 19.375 6.875 18.4727 6.875 17.3125V2.1875ZM0 10.4375C0 9.32031 0.902344 8.375 2.0625 8.375H3.4375C4.55469 8.375 5.5 9.32031 5.5 10.4375V17.3125C5.5 18.4727 4.55469 19.375 3.4375 19.375H2.0625C0.902344 19.375 0 18.4727 0 17.3125V10.4375ZM17.1875 2.875C18.3047 2.875 19.25 3.82031 19.25 4.9375V17.3125C19.25 18.4727 18.3047 19.375 17.1875 19.375H15.8125C14.6523 19.375 13.75 18.4727 13.75 17.3125V4.9375C13.75 3.82031 14.6523 2.875 15.8125 2.875H17.1875Z" fill="#1181C8"/>
</svg>
