<svg width="24" height="21" viewBox="0 0 24 21" fill="none" xmlns="http://www.w3.org/2000/svg">
<path d="M4.625 2.375C4.625 1.35938 5.44531 0.5 6.5 0.5C7.51562 0.5 8.375 1.35938 8.375 2.375C8.375 3.42969 7.51562 4.25 6.5 4.25C5.44531 4.25 4.625 3.42969 4.625 2.375ZM4.9375 20.5C4.23438 20.5 3.6875 19.9531 3.6875 19.25V10.5391L2.55469 12.4141C2.20312 13 1.42188 13.1953 0.835938 12.8438C0.25 12.4922 0.0546875 11.7109 0.40625 11.125L2.67188 7.33594C3.375 6.20312 4.58594 5.5 5.91406 5.5H11.5V2.375C11.5 1.35938 12.3203 0.5 13.375 0.5H22.125C23.1406 0.5 24 1.35938 24 2.375V11.125C24 12.1797 23.1406 13 22.125 13H13.375C12.3203 13 11.5 12.1797 11.5 11.125V9.25H14V10.5H21.5V3H14V5.5H14.625C15.2891 5.5 15.875 6.08594 15.875 6.75C15.875 7.45312 15.2891 8 14.625 8H9.3125V19.25C9.3125 19.9531 8.72656 20.5 8.0625 20.5C7.35938 20.5 6.8125 19.9531 6.8125 19.25V14.25H6.1875V19.25C6.1875 19.9531 5.60156 20.5 4.9375 20.5Z" fill="#1181C8"/>
</svg>
